<svg width="118" height="109" viewBox="0 0 118 109" fill="none" xmlns="http://www.w3.org/2000/svg">
<g clip-path="url(#clip0_1922_14525)">
<path d="M70.6251 109C60.925 109 51.6005 106.089 43.6583 100.583L42.8228 100.004L48.6564 92.025L49.4498 92.569C55.6963 96.8521 63.0175 99.1164 70.6238 99.1164C77.2782 99.1164 83.8135 97.3504 89.5244 94.0104L90.3736 93.5134L95.4325 102.004L94.5722 102.51C87.339 106.754 79.0583 108.999 70.6238 108.999L70.6251 109Z" fill="#5A5BB5"/>
<path d="M40.7215 98.3728C29.6194 89.3294 23.2515 75.941 23.2515 61.6391C23.2515 59.8186 23.3568 57.9831 23.5638 56.1812L23.6172 55.7226L24.0027 55.4673C24.7353 54.9827 25.5088 54.5143 26.3034 54.0731C28.3649 52.9304 30.6272 51.9464 33.0284 51.1495L34.7502 50.5782L34.3015 52.3355C33.5292 55.3595 33.1375 58.49 33.1375 61.6379C33.1375 72.8241 38.0799 83.3398 46.6977 90.4894L47.2804 91.0137L46.725 91.7176L41.5446 99.0408L40.7215 98.3703V98.3728Z" fill="#5A5BB5"/>
<path d="M91.918 92.5046L92.7015 91.9333C102.351 84.8926 108.113 73.5677 108.113 61.6392C108.113 40.9734 91.2958 24.1607 70.6262 24.1607C62.2662 24.1607 54.3586 26.8513 47.7564 31.9424L45.9316 33.3491L46.1647 31.0576C46.4486 28.2616 47.1093 25.602 48.1295 23.1531C48.7307 21.7106 49.4683 20.3126 50.3236 19.0001L50.4798 18.761L50.7389 18.6407C56.9941 15.7457 63.6856 14.2771 70.6275 14.2771C77.0227 14.2771 83.227 15.53 89.0669 18C94.7085 20.3857 99.7748 23.8001 104.125 28.1501C108.474 32.4989 111.891 37.564 114.277 43.2042C116.748 49.0439 118.001 55.2467 118.001 61.6404C118.001 70.0158 116.36 77.5075 113.123 83.9086C109.829 90.4225 104.868 95.8409 98.3753 100.012L98.3542 100.026L97.5013 100.514L91.9193 92.5058L91.918 92.5046Z" fill="#5A5BB5"/>
<path d="M13.4294 62.3964L10.4878 54.896L34.6679 36.4126L45.0758 8.18079L54.0929 12.661L53.1099 13.6363C50.4385 16.2885 48.3782 19.3298 46.9849 22.6759C45.5345 26.1597 44.787 30.0016 44.7622 34.0939C44.7225 40.8978 46.7121 46.0447 46.732 46.0955L47.2241 47.3485L45.8816 47.4464C41.9321 47.7339 38.1922 48.3659 34.7646 49.3239C31.4771 50.2448 28.4289 51.4791 25.7042 52.9911C18.766 56.8405 15.8529 61.4235 15.3397 62.3034C15.2789 62.4075 15.2467 62.4695 15.2393 62.4819L14.2377 64.4474L13.4307 62.3976L13.4294 62.3964Z" fill="#5A5BB5"/>
<path d="M43.7706 34.0877C43.7297 41.1605 45.8085 46.4574 45.8085 46.4574C41.5219 46.7697 37.7695 47.4538 34.4969 48.3685C30.8301 49.3959 27.7633 50.7133 25.222 52.1236C18.1277 56.0597 15.1129 60.722 14.4819 61.8027C14.3939 61.9527 14.353 62.0345 14.353 62.0345L11.6841 55.2294L28.3843 42.4631L35.4985 37.0249L38.8902 27.8241L45.6238 9.56018L52.4108 12.9324C49.4257 15.8956 47.4014 19.0931 46.0688 22.2943C44.3693 26.3754 43.7916 30.4651 43.7706 34.0877Z" fill="#5A5BB5"/>
<path d="M15.7507 16.7631L42.9977 0L30.1675 33.8757L0 53.327L15.7507 16.7631Z" fill="#5A5BB5"/>
<path d="M70.6259 87.6576C57.7883 87.6576 47.3433 77.215 47.3433 64.3793C47.3433 51.5436 57.7883 41.1023 70.6259 41.1023C83.4635 41.1023 93.9086 51.5448 93.9086 64.3793C93.9086 77.2138 83.4635 87.6576 70.6259 87.6576Z" fill="#5A5BB5"/>
<path d="M12.3663 59.8644C12.5721 60.2833 12.7952 60.7518 12.5746 61.1843C12.251 60.9104 12.1915 60.5225 11.9511 60.2511C11.7217 59.9921 11.542 59.6835 11.1862 59.5273C11.4961 60.1334 12.0651 60.6365 12.0639 61.3182C12.0428 61.54 11.8903 61.633 11.6821 61.5326C11.5581 61.4533 11.5445 61.4483 11.3387 61.3554C11.3126 61.5351 11.3598 61.6776 11.3759 61.8498C11.3957 62.6443 9.80154 60.9142 9.60072 60.6068C9.83997 61.0926 10.1648 61.623 10.5131 62.0729C10.5999 62.1845 10.6879 62.291 10.7771 62.3902C10.4585 62.4137 10.316 62.4026 10.13 62.2935C8.70571 61.0839 7.19585 59.3526 7.15494 57.4378C6.63182 56.9942 5.74921 56.7166 5.93515 55.937C6.00457 55.6817 5.90168 55.4859 5.73929 55.2814C4.66205 53.9305 3.53399 52.6181 2.52246 51.2164C2.37123 51.007 2.35511 50.9946 2.20264 50.7244C2.62287 50.4047 2.86212 50.2237 3.43606 49.8197C3.48069 49.9362 3.72738 50.4084 3.87117 50.5893C4.07819 50.9648 6.45951 54.052 7.13511 54.8167C7.27023 54.8315 7.45245 54.8476 7.6322 54.8737C8.24829 54.9803 8.30903 55.761 8.46647 56.2642C10.1635 56.8603 11.4961 58.2731 12.3676 59.8644H12.3663Z" fill="#5A5BB5"/>
</g>
<defs>
<clipPath id="clip0_1922_14525">
<rect width="118" height="109" fill="white"/>
</clipPath>
</defs>
</svg>
